#!OML:ASF F:\VICON\USERDATA\INSTALL\rory3\rory3.ASF
:FULLY-SPECIFIED
:DEGREES
651
root 1.83759 18.5362 22.0515 55.3716 -37.8456 -40.0753
lowerback -5.66612 1.3243 8.12822
upperback -12.9593 1.94857 9.1424
thorax -10.9757 0.497651 5.46352
lowerneck -4.23893 -16.214 -11.9846
upperneck 17.0823 -28.3473 25.7906
head 12.1519 -12.6428 6.81309
rclavicle 1.16289e-014 5.56597e-014
rhumerus -22.6492 -33.617 -11.7089
rradius 25.803
rwrist 9.35446
rhand -16.9261 14.71
rfingers 7.12502
rthumb 9.30669 -15.0646
lclavicle 1.16289e-014 5.56597e-014
lhumerus 36.297 26.6056 23.8062
lradius 55.4051
lwrist -40.5828
lhand -33.0034 15.2986
lfingers 7.12502
lthumb -6.21745 45.1874
rfemur -6.55024 17.8726 14.9054
rtibia 25.5702
rfoot 33.4221 -26.2989
rtoes 28.5284
lfemur -42.5076 20.6191 18.818
ltibia 23.9916
lfoot -34.9271 51.6113
ltoes 27.9706
652
root 1.82301 18.5206 21.9667 55.1408 -39.576 -39.7938
lowerback -5.47815 1.16166 7.13034
upperback -12.5282 1.70682 8.82179
thorax -10.5487 0.470385 5.62496
lowerneck -2.67387 -17.1962 -12.9066
upperneck 16.4535 -30.0724 26.6485
head 12.3629 -13.6215 6.93164
rclavicle 1.92324e-014 -1.30403e-013
rhumerus -22.8704 -33.8176 -14.3638
rradius 27.0176
rwrist 9.02421
rhand -19.5054 18.3993
rfingers 7.12502
rthumb 6.81731 -11.471
lclavicle 1.92324e-014 -1.30403e-013
lhumerus 33.1237 26.469 23.6448
lradius 56.7087
lwrist -39.8097
lhand -31.5181 15.3217
lfingers 7.12502
lthumb -4.78347 45.2477
rfemur -8.24151 17.494 13.8209
rtibia 26.0256
rfoot 31.3435 -28.5366
rtoes 30.7455
lfemur -41.8078 20.5389 17.9041
ltibia 24.158
lfoot -36.5546 51.1109
ltoes 28.1641
653
root 1.8085 18.4968 21.8826 55.3929 -41.1274 -39.8678
lowerback -5.35356 0.940272 6.29689
upperback -12.2841 1.39539 8.8424
thorax -10.3251 0.399137 6.1047
lowerneck -1.42038 -17.9641 -13.7732
upperneck 16.4911 -31.4315 26.7083
head 12.6401 -14.3991 6.82074
rclavicle 5.75979e-014 4.92986e-014
rhumerus -22.4228 -33.4173 -17.4157
rradius 28.3552
rwrist 8.57059
rhand -21.9522 21.2414
rfingers 7.12502
rthumb 4.45488 -8.69175
lclavicle 5.75979e-014 4.92986e-014
lhumerus 29.0787 26.1953 23.196
lradius 58.2299
lwrist -38.567
lhand -42.4141 17.2354
lfingers 7.12502
lthumb -15.2941 46.65
rfemur -10.2396 17.3307 12.9987
rtibia 26.476
rfoot 27.2539 -32.5754
rtoes 36.8585
lfemur -41.1927 20.276 17.5643
ltibia 24.2907
lfoot -38.0406 51.1555
ltoes 27.429
654
root 1.79071 18.46 21.7924 56.2673 -42.1653 -40.7386
lowerback -5.28191 0.593003 6.46506
upperback -12.0868 0.901712 8.94002
thorax -10.1051 0.134151 6.12127
lowerneck -0.274625 -18.4166 -13.8691
upperneck 16.8486 -32.3565 26.3898
head 12.7319 -14.9449 6.59807
rclavicle 5.27773e-014 -5.08889e-014
rhumerus -21.5472 -19.4199 -23.7353
rradius 33.1135
rwrist -4.30103
rhand -26.1059 20.3534
rfingers 7.12502
rthumb 0.443464 -9.62592
lclavicle 5.27773e-014 -5.08889e-014
lhumerus 24.2923 25.2638 21.0902
lradius 57.37
lwrist -36.4079
lhand -43.2589 15.6806
lfingers 7.12502
lthumb -16.1076 45.0312
rfemur -12.3253 17.2656 12.9879
rtibia 26.831
rfoot 23.5079 -35.1414
rtoes 40.8092
lfemur -40.5331 20.3065 18.1345
ltibia 24.4176
lfoot -39.1149 51.2436
ltoes 26.6806
655
root 1.7739 18.4266 21.7034 57.1968 -43.4893 -41.6175
lowerback -5.23334 0.294675 6.47452
upperback -11.8615 0.467863 8.94979
thorax -9.84076 -0.0887594 6.12148
lowerneck 2.46318 -17.6154 -17.3148
upperneck 16.3805 -32.6624 29.7944
head 13.7183 -15.5218 8.52937
rclavicle -3.6477e-014 3.65764e-014
rhumerus -20.9675 -34.5349 -24.4474
rradius 29.5042
rwrist 12.7695
rhand -25.3432 32.5111
rfingers 7.12502
rthumb 1.18006 2.53461
lclavicle -3.6477e-014 3.65764e-014
lhumerus 19.3897 25.7621 20.7955
lradius 61.3092
lwrist -35.5454
lhand -37.8343 13.9941
lfingers 7.12502
lthumb -10.8794 43.6922
rfemur -14.4675 17.1354 12.6757
rtibia 27.0411
rfoot 20.6062 -35.9898
rtoes 42.5101
lfemur -39.7272 19.9447 18.6702
ltibia 24.5824
lfoot -40.478 51.5999
ltoes 25.3763
656
root 1.75992 18.3947 21.6234 57.8425 -45.462 -41.8914
lowerback -5.28893 0.0939553 5.77509
upperback -11.7384 0.161333 8.85335
thorax -9.63354 -0.186321 6.40073
lowerneck 1.85366 -19.2551 -14.6554
upperneck 17.2947 -33.9122 25.6546
head 12.8559 -15.9267 6.24295
rclavicle -2.17669e-014 -9.54166e-015
rhumerus -20.1508 -30.4687 -29.0427
rradius 32.0141
rwrist 7.48561
rhand -28.0519 30.6471
rfingers 7.12502
rthumb -1.43603 0.672186
lclavicle -2.17669e-014 -9.54166e-015
lhumerus 14.3938 25.7353 20.4153
lradius 61.9417
lwrist -35.382
lhand -36.3777 13.2061
lfingers 7.12502
lthumb -9.47426 42.9731
rfemur -16.8099 16.7868 11.4462
rtibia 27.3267
rfoot 15.8155 -36.7483
rtoes 45.3373
lfemur -38.9488 19.3174 18.3334
ltibia 24.5978
lfoot -41.848 52.292
ltoes 23.6016
657
root 1.74709 18.3599 21.5444 58.5011 -47.6336 -42.0222
lowerback -5.47746 -0.16934 4.84735
upperback -11.5906 -0.243089 8.79357
thorax -9.30686 -0.313355 6.84611
lowerneck 2.34985 -19.5843 -14.9878
upperneck 17.5595 -34.3408 24.9189
head 12.8446 -16.2041 5.96307
rclavicle 2.34566e-014 -3.18055e-015
rhumerus -19.3624 -29.4271 -32.4803
rradius 33.3417
rwrist 7.47285
rhand -28.857 32.8006
rfingers 7.12502
rthumb -2.21359 2.8323
lclavicle 2.34566e-014 -3.18055e-015
lhumerus 9.0193 25.7858 19.9221
lradius 62.7408
lwrist -34.8398
lhand -33.4217 13.1011
lfingers 7.12502
lthumb -6.62136 42.9776
rfemur -19.3572 16.2696 9.95971
rtibia 27.7203
rfoot 8.84219 -37.3196
rtoes 49.5691
lfemur -38.1822 18.8997 17.5676
ltibia 24.3896
lfoot -43.1669 52.7502
ltoes 21.666
658
root 1.73544 18.3443 21.4481 58.894 -50.7812 -41.6516
lowerback -5.68105 -0.417173 3.1483
upperback -11.4706 -0.625152 8.17262
thorax -8.97911 -0.385512 7.10112
lowerneck 2.72962 -19.7924 -14.7613
upperneck 17.7721 -34.6491 24.3776
head 12.7466 -16.3962 5.72179
rclavicle 1.95803e-014 -7.15625e-014
rhumerus -18.9343 -28.5669 -36.2724
rradius 34.7015
rwrist 7.35478
rhand -29.3797 34.4225
rfingers 7.12502
rthumb -2.71841 4.46006
lclavicle 1.95803e-014 -7.15625e-014
lhumerus 3.77703 25.7023 18.9607
lradius 63.4048
lwrist -34.4167
lhand -36.4544 12.6216
lfingers 7.12502
lthumb -9.54822 42.3853
rfemur -22.3007 15.6534 7.5092
rtibia 28.1971
rfoot 5.49233 -36.5114
rtoes 50.7101
lfemur -37.1489 16.6428 16.4788
ltibia 24.0645
lfoot -46.3594 54.4609
ltoes 17.5335
659
root 1.72177 18.3178 21.3412 59.0916 -53.4766 -41.49
lowerback -5.52911 -0.677895 1.65573
upperback -11.3382 -0.980879 7.87316
thorax -8.85486 -0.448182 7.61916
lowerneck 3.10256 -19.9318 -14.9761
upperneck 18.0153 -34.7711 23.6917
head 12.6654 -16.5224 5.52753
rclavicle -2.24627e-014 -9.54166e-015
rhumerus -18.4338 -27.1578 -39.7332
rradius 36.0652
rwrist 6.762
rhand -29.8485 34.2303
rfingers 7.12502
rthumb -3.1712 4.27416
lclavicle -2.24627e-014 -9.54166e-015
lhumerus -1.62648 25.5431 18.3651
lradius 63.6544
lwrist -33.9681
lhand -37.814 12.8718
lfingers 7.12502
lthumb -10.8598 42.571
rfemur -24.8408 15.318 5.75298
rtibia 28.6864
rfoot 2.49625 -35.2608
rtoes 51.2198
lfemur -35.9366 13.7646 16.1237
ltibia 23.7306
lfoot -49.8182 56.232
ltoes 12.7031
